<svg id="Joystick" xmlns="http://www.w3.org/2000/svg" viewBox="0 0 217.92 202.53"><defs><style>.cls-1{fill:#242638;}.cls-2{fill:#282942;}.cls-3{fill:#393a59;}.cls-4{fill:#a5a4a4;}.cls-5{fill:#dbdbdb;}.cls-6{fill:#7f7f7f;}.cls-7{fill:#b5b5b5;}.cls-8{fill:#6b6889;}.cls-9{fill:#db428f;}.cls-10{fill:#f486c3;}.cls-11{fill:#ed55a9;}</style></defs><g id="Joystick-2" data-name="Joystick"><g id="Cable"><path id="Cable-2" data-name="Cable" class="cls-1" d="M96.84,17.21a26.4,26.4,0,0,0-1.18,36.06l-.06.07a19.38,19.38,0,0,1-27.41,27.4,26.42,26.42,0,0,0-37.37,37.37,19.37,19.37,0,0,1,0,27.4,3.53,3.53,0,1,0,5,5,26.44,26.44,0,0,0,0-37.37,19.38,19.38,0,0,1,27.4-27.41,26.41,26.41,0,0,0,38.55-36.06l.06-.06a19.38,19.38,0,1,1,27.41,0,26.42,26.42,0,0,0,0,37.37l5-5a19.38,19.38,0,0,1,0-27.41A26.42,26.42,0,0,0,96.84,17.21Z" transform="translate(-23.08 -9.47)"/><polygon id="Cable-Port_Side" data-name="Cable-Port Side" class="cls-2" points="99.92 95.75 99.92 82.6 105.85 86.53 104.85 96.53 99.92 95.75"/><path id="Cable-Port_Upper" data-name="Cable-Port Upper" class="cls-3" d="M159,87.47,136.47,110,125.92,99.44a10,10,0,0,1,0-14.08l8.44-8.44a10,10,0,0,1,14.08,0Z" transform="translate(-23.08 -9.47)"/></g><g id="Controller-Base"><path id="Controller-Base_Side" data-name="Controller-Base Side" class="cls-4" d="M241,145V125l-8.14,8.14-52.5-52.49a9,9,0,0,0-12.72,0l-52.5,52.49L107,125v20a9,9,0,0,0,2.64,6.37l58,58a9,9,0,0,0,12.72,0l58-58A9,9,0,0,0,241,145Z" transform="translate(-23.08 -9.47)"/><g id="Controller-Base_Upper" data-name="Controller-Base Upper"><rect class="cls-5" x="124" y="75" width="100" height="100" rx="9" transform="translate(-60.51 150.18) rotate(-45)"/></g></g><g id="Joystick_Stick" data-name="Joystick Stick"><circle id="Joystick-Base_Base_2" data-name="Joystick-Base Base 2" class="cls-6" cx="150.92" cy="115.53" r="17.5"/><circle id="Joystick-Base_Base_1" data-name="Joystick-Base Base 1" class="cls-7" cx="150.92" cy="114.53" r="16.5"/><rect id="Joystick_Stick-2" data-name="Joystick Stick" class="cls-8" x="142.92" y="37.53" width="16" height="84" rx="8"/><circle id="Joystick_Ball" data-name="Joystick Ball" class="cls-9" cx="150.92" cy="42.38" r="25"/><path id="Joystick_Ball_Highlight" data-name="Joystick Ball Highlight" class="cls-10" d="M169.17,32.34c-3,0-8.41,1.38-11.69,4.22A14.15,14.15,0,0,0,153,46.87C153,50,154,52,155.37,52.3s3-1.12,5.5-2.92a95.09,95.09,0,0,0,7.9-6,13.93,13.93,0,0,0,3.69-5.1,5.57,5.57,0,0,0,.43-3.45c-.22-1.15-.75-2.51-3.72-2.5Z" transform="translate(-23.08 -9.47)"/></g><g id="Button_Left" data-name="Button Left"><circle id="Button-Base_Dark" data-name="Button-Base Dark" class="cls-6" cx="156.92" cy="154.53" r="15"/><circle id="Button-Base_Light" data-name="Button-Base Light" class="cls-7" cx="156.92" cy="153.53" r="14"/><path id="Button_Side" data-name="Button Side" class="cls-9" d="M193,161v-4h-1a13.16,13.16,0,0,0-23.91,0H167v6h.05a13,13,0,0,0,26-1C193.05,161.69,193,161.37,193,161Z" transform="translate(-23.08 -9.47)"/><circle id="Button_Highlight" data-name="Button Highlight" class="cls-10" cx="156.92" cy="148.53" r="13"/><circle id="Button_Top" data-name="Button Top" class="cls-11" cx="157.42" cy="148.03" r="12.5"/></g><g id="Button_Right" data-name="Button Right"><circle id="Button-Base_Dark-2" data-name="Button-Base Dark" class="cls-6" cx="190.92" cy="120.53" r="15"/><circle id="Button-Base_Light-2" data-name="Button-Base Light" class="cls-7" cx="190.92" cy="119.53" r="14"/><path id="Button_Side-2" data-name="Button Side" class="cls-9" d="M227,127v-4h-1a13.16,13.16,0,0,0-23.91,0H201v6h.05a13,13,0,0,0,26-1C227.05,127.69,227,127.37,227,127Z" transform="translate(-23.08 -9.47)"/><circle id="Button_Highlight-2" data-name="Button Highlight" class="cls-10" cx="190.92" cy="114.53" r="13"/><circle id="Button_Top-2" data-name="Button Top" class="cls-11" cx="191.42" cy="114.03" r="12.5"/></g><g id="Text"><path class="cls-6" d="M119,125.13a4.41,4.41,0,0,0,3.09-1.71l3.78-4v-1.12l-.72.36-.48-.51-3.78,4a4.57,4.57,0,0,1-.82.7l-1.61.32a3,3,0,0,1-1.2-.84l-.59-.62-.47.49-.73-.34V123l.59.63A4.05,4.05,0,0,0,119,125.13Z" transform="translate(-23.08 -9.47)"/><polygon class="cls-6" points="97.21 117.48 96.68 116.92 96.68 118.05 100.09 121.68 101.29 120.4 101.29 119.28 100.76 119.84 99.08 118.05 100.77 116.24 102.63 118.22 103.82 116.96 103.82 115.83 103.29 116.39 101.96 114.98 103.56 113.28 105.72 115.58 106.92 114.3 106.83 114.2 106.83 114.2 106.92 113.73 106.92 113.17 106.39 113.73 103.56 110.72 97.21 117.48"/><path class="cls-6" d="M128.05,134.67l-.18-.12v1.36a1.55,1.55,0,0,0,0,.23,1.41,1.41,0,0,0,.31.49.67.67,0,0,0,.53.23.91.91,0,0,0,.57-.31l4.19-4.47-1.35,7.17-.16-.17v1.06h0a.91.91,0,0,0,0,.41,1.59,1.59,0,0,0,.3.5.67.67,0,0,0,.53.22.86.86,0,0,0,.57-.31l6.34-6.74v-1.13l-.53.56h0l-.67-.71L134,137.89l1.55-7.37a1.72,1.72,0,0,0,.05-.43v-1l-.17.46a1.88,1.88,0,0,0-.14-.24,1.27,1.27,0,0,0-.36-.26,1,1,0,0,0-.41-.09,1.07,1.07,0,0,0-.79.36l-3.87,4.11,1.71-8.08v-1.13l-.2.92-1.23-1.31Z" transform="translate(-23.08 -9.47)"/><polygon class="cls-6" points="111.18 132.36 110.65 131.8 110.65 132.93 111.85 134.2 114.54 131.34 116.16 133.06 117.36 131.79 117.36 130.66 116.83 131.22 115.74 130.06 117.53 128.15 119.46 130.21 120.66 128.93 120.66 127.81 120.13 128.37 117.53 125.6 111.18 132.36"/><path class="cls-6" d="M146.35,148.36a5.62,5.62,0,0,0-1.12,1.74,5.35,5.35,0,0,0-.4,2,5,5,0,0,0,.35,2,5.43,5.43,0,0,0,1.13,1.77l.2.22a5,5,0,0,0,1.66,1.19,4.45,4.45,0,0,0,1.85.38,4.6,4.6,0,0,0,1.83-.42,5.17,5.17,0,0,0,1.64-1.2,5.69,5.69,0,0,0,1.1-1.7,4.73,4.73,0,0,0,.36-1.88,4.94,4.94,0,0,0-.39-1.91,5.88,5.88,0,0,0-1.17-1.79l-.2-.22a5.62,5.62,0,0,0-1.67-1.24,4.16,4.16,0,0,0-3.56,0A5,5,0,0,0,146.35,148.36Zm3.37.33a2.93,2.93,0,0,1,1.19.26,3.49,3.49,0,0,1,1.08.79l.2.22a3.48,3.48,0,0,1,.74,1.15,3.32,3.32,0,0,1,.26,1.27,3.5,3.5,0,0,1-.25,1.27,3.76,3.76,0,0,1-.74,1.15,3.43,3.43,0,0,1-1,.76,2.8,2.8,0,0,1-1.16.26,3,3,0,0,1-1.18-.28,3.59,3.59,0,0,1-1.1-.81l-.2-.22a3.65,3.65,0,0,1-.76-1.15,3.27,3.27,0,0,1-.26-1.26,3.17,3.17,0,0,1,.23-1.24,3.61,3.61,0,0,1,.72-1.13,3.48,3.48,0,0,1,1.09-.79A2.83,2.83,0,0,1,149.72,148.69Z" transform="translate(-23.08 -9.47)"/><path class="cls-6" d="M137.39,145.17v1.13l1.2,1.27,5.68-6,1.32,1.41a2.48,2.48,0,0,1,.73,1.4,1.71,1.71,0,0,1-.53,1.33,1.45,1.45,0,0,1-1.41.51,4,4,0,0,1-1.81-1.11c-.51-.46-1-.5-1.33-.1a.9.9,0,0,0-.22.41,3.23,3.23,0,0,0-.08.6l-.1,4,1.67,1.78.14-4.63a3.72,3.72,0,0,0,1.35.72,3,3,0,0,0,1.21.1,2.85,2.85,0,0,0,1-.35,3.42,3.42,0,0,0,.81-.64,3.67,3.67,0,0,0,.81-1.29,3.37,3.37,0,0,0,.17-1h0V143.3l-.09.53a3.93,3.93,0,0,0-.29-.9,5.17,5.17,0,0,0-.86-1.25L144.27,139l-6.35,6.76Z" transform="translate(-23.08 -9.47)"/><path class="cls-7" d="M115.5,121.86l1.2-1.28.59.63a2.38,2.38,0,0,0,1.77.92,3,3,0,0,0,1.86-1.11l3.78-4,1.2,1.28-3.78,4A4.49,4.49,0,0,1,119,124a4.09,4.09,0,0,1-2.94-1.52Z" transform="translate(-23.08 -9.47)"/><path class="cls-7" d="M123.17,130l-3.41-3.64,6.88-7.32,3.36,3.57-1.2,1.28-2.16-2.3-1.6,1.7,1.86,2-1.19,1.27-1.86-2-1.69,1.8,2.21,2.36Z" transform="translate(-23.08 -9.47)"/><path class="cls-7" d="M130.09,122.74l1.43,1.52-1.71,8.09,3.87-4.12a1,1,0,0,1,.37-.26,1.06,1.06,0,0,1,.42-.09,1.15,1.15,0,0,1,.41.08,1.27,1.27,0,0,1,.36.26,1.52,1.52,0,0,1,.28.48,1.28,1.28,0,0,1,0,.7L134,136.76l4.65-4.95,1.2,1.28-6.34,6.74a.82.82,0,0,1-.57.31.64.64,0,0,1-.53-.22,1.59,1.59,0,0,1-.3-.5.93.93,0,0,1-.06-.34,1.24,1.24,0,0,1,0-.27l1.48-7.85-4.19,4.46a.86.86,0,0,1-.57.31.64.64,0,0,1-.53-.23,1.41,1.41,0,0,1-.31-.49,1,1,0,0,1,0-.61Z" transform="translate(-23.08 -9.47)"/><path class="cls-7" d="M142.54,138.56l-1.93-2.06-1.79,1.91,1.62,1.72-1.2,1.28-1.62-1.73-2.69,2.87-1.2-1.28,6.88-7.33,3.13,3.34Z" transform="translate(-23.08 -9.47)"/><path class="cls-7" d="M142.51,150.63l-1.67-1.79.1-4a3.23,3.23,0,0,1,.08-.6.87.87,0,0,1,.22-.4c.37-.41.82-.37,1.33.1a4.22,4.22,0,0,0,1.81,1.11,1.48,1.48,0,0,0,1.41-.52,1.7,1.7,0,0,0,.53-1.32,2.45,2.45,0,0,0-.73-1.4l-1.32-1.41-5.68,6-1.2-1.28,6.88-7.33,2.55,2.72a4.93,4.93,0,0,1,.86,1.24,3.79,3.79,0,0,1,.37,1.36,3.27,3.27,0,0,1-.18,1.37,3.7,3.7,0,0,1-.81,1.3,4,4,0,0,1-.81.64,2.83,2.83,0,0,1-1,.34,3,3,0,0,1-1.21-.1,3.84,3.84,0,0,1-1.35-.71Z" transform="translate(-23.08 -9.47)"/><path class="cls-7" d="M146.31,154.66a5.33,5.33,0,0,1-1.13-1.77,5,5,0,0,1-.35-2,5.27,5.27,0,0,1,.4-2,5.55,5.55,0,0,1,1.12-1.75,4.91,4.91,0,0,1,1.61-1.17,4.12,4.12,0,0,1,3.56,0,5.66,5.66,0,0,1,1.67,1.25l.2.21a5.88,5.88,0,0,1,1.17,1.79,5,5,0,0,1,.39,1.91,4.73,4.73,0,0,1-.36,1.88,5.57,5.57,0,0,1-1.1,1.7,5.17,5.17,0,0,1-1.64,1.2,4.6,4.6,0,0,1-1.83.42,4.43,4.43,0,0,1-1.85-.37,5,5,0,0,1-1.66-1.2Zm5.68-6a3.33,3.33,0,0,0-1.08-.79,2.79,2.79,0,0,0-1.19-.27,3,3,0,0,0-1.19.25,3.36,3.36,0,0,0-1.09.8,3.57,3.57,0,0,0-.72,1.12,3.18,3.18,0,0,0-.23,1.25,3.26,3.26,0,0,0,.26,1.25,3.81,3.81,0,0,0,.76,1.16l.2.21a3.47,3.47,0,0,0,1.1.82,3.12,3.12,0,0,0,1.18.27,2.65,2.65,0,0,0,1.16-.26,3.27,3.27,0,0,0,1-.76,3.65,3.65,0,0,0,.74-1.15,3.45,3.45,0,0,0,.25-1.26,3.37,3.37,0,0,0-.26-1.28,3.58,3.58,0,0,0-.74-1.15Z" transform="translate(-23.08 -9.47)"/><path class="cls-6" d="M162.17,157.19h0v-.73l-.36.06-4.22-4.22a.77.77,0,0,0-1.09,0l0,.05-.17-.45,0,.92v.09h0a.78.78,0,0,0,.21.47l4.36,4.35a.77.77,0,0,0,1.09,0,.79.79,0,0,0,.22-.52h0Z" transform="translate(-23.08 -9.47)"/><rect class="cls-7" x="158.45" y="150.39" width="1.54" height="7.7" rx="0.67" transform="translate(-85.51 148.29) rotate(-45)"/><path class="cls-6" d="M161.74,160.45h0v-.74l-.36.06-4.22-4.21a.76.76,0,0,0-1.08,0s0,0,0,0l-.17-.44,0,.92v.09h0a.73.73,0,0,0,.21.47l4.35,4.35a.77.77,0,0,0,1.09,0,.81.81,0,0,0,.22-.52h0Z" transform="translate(-23.08 -9.47)"/><rect class="cls-7" x="158.03" y="153.65" width="1.54" height="7.7" rx="0.67" transform="translate(-87.94 148.94) rotate(-45)"/><path class="cls-6" d="M161.31,164.15h0v-.74l-.36.06-4.21-4.21a.77.77,0,0,0-1.09,0s0,0,0,0l-.18-.44v.92s0,0,0,0v.05h0a.7.7,0,0,0,.21.46l4.35,4.36a.77.77,0,0,0,1.09,0,.81.81,0,0,0,.22-.52h0Z" transform="translate(-23.08 -9.47)"/><rect class="cls-7" x="157.6" y="157.35" width="1.54" height="7.7" rx="0.67" transform="translate(-90.68 149.72) rotate(-45)"/></g></g></svg>